<svg width="14" height="15" viewBox="0 0 14 15" fill="none" xmlns="http://www.w3.org/2000/svg">
<g clip-path="url(#clip0_31_578)">
<path d="M13.6198 0.652985C13.896 0.844392 14.0409 1.17525 13.989 1.50611L12.239 12.8811C12.198 13.1463 12.0366 13.3788 11.8015 13.51C11.5663 13.6413 11.2847 13.6577 11.0359 13.5538L7.76554 12.1948L5.8925 14.221C5.64914 14.4862 5.26632 14.5737 4.93 14.4424C4.59367 14.3112 4.37492 13.9858 4.37492 13.6249V11.3389C4.37492 11.2295 4.41593 11.1256 4.48976 11.0463L9.07257 6.04517C9.23117 5.87291 9.2257 5.60767 9.06164 5.44361C8.89757 5.27955 8.63234 5.26861 8.46007 5.42447L2.89836 10.3655L0.483903 9.15689C0.194059 9.01197 0.00812171 8.72213 -8.14109e-05 8.39947C-0.00828454 8.07681 0.161247 7.77603 0.440153 7.6147L12.6902 0.614704C12.9827 0.447907 13.3437 0.464314 13.6198 0.652985Z" fill="white"/>
</g>
<defs>
<clipPath id="clip0_31_578">
<rect width="14" height="14" fill="white" transform="translate(0 0.5)"/>
</clipPath>
</defs>
</svg>
